<svg version="1.1" viewBox="0.0 0.0 960.0 540.0" fill="none" stroke="none" stroke-linecap="square" stroke-miterlimit="10" xmlns:xlink="http://www.w3.org/1999/xlink" xmlns="http://www.w3.org/2000/svg"><clipPath id="p.0"><path d="m0 0l960.0 0l0 540.0l-960.0 0l0 -540.0z" clip-rule="nonzero"/></clipPath><g clip-path="url(#p.0)"><path fill="#ff0000" d="m0 0l960.0 0l0 540.0l-960.0 0z" fill-rule="evenodd"/><path fill="#000000" fill-opacity="0.0" d="m33.90814 110.62992l418.77164 0l0 159.37009l-418.77164 0z" fill-rule="evenodd"/><path fill="#000000" d="m66.11126 139.32054l13.359375 39.25l0.15625 0l12.625 -39.09375l0.078125 -0.15625l17.609375 0l0 57.109375l-11.75 0l0 -40.46875l-0.15625 0l-13.984375 40.46875l-9.6875 0l-14.031246 -40.078125l-0.15625 0l0 40.078125l-11.75 0l0 -57.109375l17.687496 0zm72.81251 14.640625q9.1875 0 14.671875 6.3125q5.484375 6.3125 5.484375 16.109375l-0.078125 2.109375l-29.84375 0q0.234375 5.359375 2.796875 7.9375q2.5625 2.578125 7.328125 2.578125q3.078125 0 5.6875 -1.578125q2.625 -1.59375 3.328125 -3.8125l10.0 0q-2.296875 7.03125 -7.109375 10.5q-4.796875 3.453125 -12.265625 3.453125q-9.5625 0 -15.343758 -6.0625q-5.78125 -6.0625 -5.78125 -15.703125q0 -9.265625 5.90625 -15.546875q5.9218826 -6.296875 15.218758 -6.296875zm-9.765625 17.34375l18.484375 0q-0.828125 -4.5625 -2.953125 -6.671875q-2.125 -2.109375 -6.15625 -2.109375q-4.140625 0 -6.5625 2.34375q-2.421875 2.34375 -2.8125 6.4375zm55.703125 -17.34375q9.1875 0 14.671875 6.3125q5.484375 6.3125 5.484375 16.109375l-0.078125 2.109375l-29.84375 0q0.234375 5.359375 2.796875 7.9375q2.5625 2.578125 7.328125 2.578125q3.078125 0 5.6875 -1.578125q2.625 -1.59375 3.328125 -3.8125l10.0 0q-2.296875 7.03125 -7.109375 10.5q-4.796875 3.453125 -12.265625 3.453125q-9.5625 0 -15.34375 -6.0625q-5.78125 -6.0625 -5.78125 -15.703125q0 -9.265625 5.90625 -15.546875q5.921875 -6.296875 15.21875 -6.296875zm-9.765625 17.34375l18.484375 0q-0.828125 -4.5625 -2.953125 -6.671875q-2.125 -2.109375 -6.15625 -2.109375q-4.140625 0 -6.5625 2.34375q-2.421875 2.34375 -2.8125 6.4375zm50.984375 -28.625l0 12.375l8.3125 0l0 7.625l-8.3125 0l0 20.734375q0 2.546875 0.953125 3.546875q0.953125 0.984375 3.84375 0.984375q0.984375 0 1.875 -0.078125q0.90625 -0.078125 1.640625 -0.234375l0 8.875q-1.40625 0.234375 -3.140625 0.3125q-1.734375 0.078125 -3.421875 0.078125q-7.375 0 -10.25 -2.515625q-2.875 -2.53125 -2.875 -7.0625l0 -24.640625l-6.875 0l0 -7.625l6.875 0l0 -12.375l11.375 0zm25.460938 -3.359375l0 9.328125l-11.359375 0l0 -9.328125l11.359375 0zm0 15.734375l0 41.375l-11.359375 0l0 -41.375l11.359375 0zm32.65625 -1.09375q7.9375 0 11.5 4.015625q3.578125 4.0 3.578125 12.59375l0 25.859375l-11.359375 0l0 -23.71875q0 -4.84375 -1.671875 -7.3125q-1.65625 -2.484375 -5.59375 -2.484375q-4.734375 0 -6.78125 2.8125q-2.046875 2.8125 -2.046875 8.625l0 22.078125l-11.328125 0l0 -41.375l10.78125 0l0 5.78125l0.234375 0q2.0625 -3.3125 5.375 -5.09375q3.328125 -1.78125 7.3125 -1.78125zm40.15625 0q4.53125 0 7.5 1.6875q2.96875 1.671875 4.84375 4.921875l0.15625 0l0 -5.515625l10.78125 0l0 39.0625q0 8.328125 -5.296875 13.15625q-5.28125 4.828125 -16.0625 4.828125q-7.3125 0 -12.546875 -3.5q-5.234375 -3.5 -5.734375 -9.78125l11.25 0q0.78125 3.0 2.96875 4.34375q2.1875 1.359375 5.5 1.359375q4.375 0 6.75 -2.640625q2.390625 -2.640625 2.390625 -7.328125l0 -5.75l-0.15625 0q-1.671875 3.046875 -4.9375 4.734375q-3.265625 1.671875 -7.484375 1.671875q-8.359375 0 -13.015625 -5.546875q-4.640625 -5.546875 -4.640625 -15.234375q0 -8.75 4.859375 -14.609375q4.875 -5.859375 12.875 -5.859375zm-6.359375 20.3125q0 5.828125 2.390625 9.109375q2.40625 3.28125 6.78125 3.28125q4.5 0 7.09375 -3.28125q2.59375 -3.28125 2.59375 -8.203125q0 -6.0625 -2.46875 -9.359375q-2.453125 -3.296875 -7.25 -3.296875q-4.21875 0 -6.6875 3.203125q-2.453125 3.203125 -2.453125 8.546875zm55.742188 -20.3125q8.4375 0 13.015625 3.34375q4.59375 3.34375 5.21875 9.828125l-10.8125 0q-0.234375 -2.9375 -2.1875 -4.265625q-1.953125 -1.328125 -5.59375 -1.328125q-3.28125 0 -4.78125 0.984375q-1.5 0.96875 -1.5 2.84375q0 1.921875 1.96875 3.15625q1.96875 1.21875 7.953125 2.359375q9.53125 1.828125 12.78125 4.71875q3.265625 2.890625 3.265625 7.578125q0 7.03125 -5.140625 10.71875q-5.125 3.671875 -13.71875 3.671875q-8.59375 0 -13.859375 -3.65625q-5.25 -3.65625 -5.59375 -10.921875l10.8125 0q0 3.28125 2.484375 5.125q2.484375 1.828125 6.234375 1.828125q3.3125 0 5.375 -1.421875q2.078125 -1.4375 2.078125 -3.859375q0 -2.140625 -2.703125 -3.5q-2.6875 -1.375 -9.875 -2.859375q-7.109375 -1.40625 -10.28125 -4.015625q-3.15625 -2.625 -3.15625 -7.078125q0 -6.5625 4.640625 -9.90625q4.65625 -3.34375 13.375 -3.34375z" fill-rule="nonzero"/><path fill="#000000" d="m64.36126 228.10056l0 20.21875l4.46875 0l0 5.609375l-4.46875 0l0 7.78125l-6.468746 0l0 -7.78125l-14.203125 0l0 -6.234375l14.578125 -19.59375l6.093746 0zm-6.609371 8.546875l-8.703125 11.671875l8.84375 0l0 -11.671875l-0.140625 0zm42.187496 9.03125l0 5.859375l-14.4375 0l0 -5.859375l14.4375 0zm30.085945 -18.234375q4.5 0 7.40625 2.484375q2.90625 2.484375 3.5 6.8125l-6.46875 0q-0.421875 -1.9375 -1.671875 -3.046875q-1.234375 -1.125 -2.859375 -1.125q-2.7656326 0 -4.4687576 2.75q-1.6875 2.734375 -1.953125 7.46875l0.09375 0.09375q1.390625 -1.984375 3.21875 -2.859375q1.8437576 -0.890625 4.3281326 -0.890625q2.765625 0 5.359375 1.515625q2.59375 1.515625 3.796875 4.078125q1.203125 2.5625 1.203125 5.359375q0 5.25 -3.34375 8.78125q-3.328125 3.53125 -8.421875 3.53125q-6.3281326 0 -9.625008 -4.53125q-3.28125 -4.546875 -3.28125 -12.84375q0 -7.578125 3.484375 -12.578125q3.5 -5.0 9.703133 -5.0zm-5.9062576 23.078125q0 2.53125 1.515625 4.390625q1.515625 1.84375 3.9218826 1.84375q2.203125 0 3.671875 -1.796875q1.46875 -1.8125 1.46875 -4.34375q0 -2.59375 -1.359375 -4.453125q-1.359375 -1.875 -3.828125 -1.875q-2.4531326 0 -3.9218826 1.734375q-1.46875 1.71875 -1.46875 4.5zm34.97657 -14.296875q5.265625 0 8.265625 3.703125q3.0 3.6875 3.0 9.640625q0 5.5 -2.953125 9.171875q-2.953125 3.65625 -7.9375 3.65625q-2.28125 0 -4.25 -0.96875q-1.96875 -0.984375 -3.1875 -2.796875l-0.109375 0l0 11.828125l-6.796875 0l0 -33.578125l6.46875 0l0 3.171875l0.09375 0q1.21875 -1.953125 3.09375 -2.890625q1.890625 -0.9375 4.3125 -0.9375zm-7.40625 13.15625q0 3.5625 1.515625 5.71875q1.53125 2.15625 4.4375 2.15625q2.828125 0 4.359375 -2.0625q1.546875 -2.0625 1.546875 -5.8125q0 -3.5625 -1.53125 -5.78125q-1.515625 -2.234375 -4.46875 -2.234375q-2.8125 0 -4.34375 2.109375q-1.515625 2.109375 -1.515625 5.90625zm37.054688 -13.15625q2.765625 0 4.5625 1.078125q1.8125 1.0625 2.671875 3.046875q1.40625 -1.984375 3.328125 -3.046875q1.921875 -1.078125 4.203125 -1.078125q4.5 0 6.765625 2.296875q2.28125 2.296875 2.28125 6.359375l0 16.828125l-6.828125 0l0 -14.34375q0 -3.40625 -1.0 -4.578125q-0.984375 -1.1875 -3.171875 -1.1875q-2.296875 0 -3.4375 1.546875q-1.125 1.546875 -1.125 4.515625l0 14.046875l-6.828125 0l0 -15.28125q0 -2.46875 -0.9375 -3.640625q-0.9375 -1.1875 -3.15625 -1.1875q-1.953125 0 -3.296875 1.5q-1.328125 1.5 -1.328125 4.046875l0 14.5625l-6.8125 0l0 -24.828125l6.421875 0l0 3.375l0.09375 0q1.453125 -2.03125 3.359375 -3.03125q1.90625 -1.0 4.234375 -1.0z" fill-rule="nonzero"/><path fill="#000000" fill-opacity="0.0" d="m29.66929 305.1076l371.3071 0l0 130.55118l-371.3071 0z" fill-rule="evenodd"/><path fill="#000000" d="m52.622417 390.9076l-13.671875 -57.265625l11.828125 0l8.640625 39.328125l10.468746 -39.328125l13.75 0l10.03125 40.0l8.796875 -40.0l11.640625 0l-13.90625 57.265625l-12.265625 0l-11.40625 -42.8125l-11.375 42.8125l-12.531246 0zm89.875 -13.203125l10.9375 1.828125q-2.109375 6.015625 -6.65625 9.171875q-4.546875 3.140625 -11.390625 3.140625q-10.812508 0 -16.015633 -7.078125q-4.09375 -5.65625 -4.09375 -14.296875q0 -10.3125 5.390625 -16.140625q5.390625 -5.84375 13.625008 -5.84375q9.265625 0 14.609375 6.109375q5.359375 6.109375 5.125 18.734375l-27.500008 0q0.109375 4.875 2.6406326 7.59375q2.546875 2.71875 6.34375 2.71875q2.578125 0 4.328125 -1.40625q1.765625 -1.40625 2.65625 -4.53125zm0.625 -11.09375q-0.109375 -4.765625 -2.453125 -7.25q-2.34375 -2.484375 -5.703125 -2.484375q-3.59375 0 -5.9375 2.625q-2.3437576 2.609375 -2.3125076 7.109375l16.406258 0zm43.867188 11.09375l10.9375 1.828125q-2.109375 6.015625 -6.65625 9.171875q-4.546875 3.140625 -11.390625 3.140625q-10.8125 0 -16.015625 -7.078125q-4.09375 -5.65625 -4.09375 -14.296875q0 -10.3125 5.390625 -16.140625q5.390625 -5.84375 13.625 -5.84375q9.265625 0 14.609375 6.109375q5.359375 6.109375 5.125 18.734375l-27.5 0q0.109375 4.875 2.640625 7.59375q2.546875 2.71875 6.34375 2.71875q2.578125 0 4.328125 -1.40625q1.765625 -1.40625 2.65625 -4.53125zm0.625 -11.09375q-0.109375 -4.765625 -2.453125 -7.25q-2.34375 -2.484375 -5.703125 -2.484375q-3.59375 0 -5.9375 2.625q-2.34375 2.609375 -2.3125 7.109375l16.40625 0zm19.460938 24.296875l0 -57.265625l10.96875 0l0 30.390625l12.859375 -14.609375l13.515625 0l-14.1875 15.15625l15.203125 26.328125l-11.84375 0l-10.421875 -18.640625l-5.125 5.359375l0 13.28125l-10.96875 0zm44.882812 0l0 -57.265625l10.968735 0l0 57.265625l-10.968735 0zm17.023422 -41.484375l11.6875 0l9.921875 29.453125l9.6875 -29.453125l11.359375 0l-14.640625 39.921875l-2.625 7.234375q-1.4375 3.625 -2.75 5.53125q-1.3125 1.921875 -3.015625 3.109375q-1.6875 1.203125 -4.171875 1.859375q-2.484375 0.671875 -5.609375 0.671875q-3.15625 0 -6.203125 -0.671875l-0.984375 -8.59375q2.578125 0.515625 4.65625 0.515625q3.828125 0 5.65625 -2.25q1.84375 -2.25 2.8125 -5.71875l-15.78125 -41.609375z" fill-rule="nonzero"/><path fill="#000000" d="m49.903667 456.18762l0 -28.546875l-10.203125 0l0 -5.8125l27.312496 0l0 5.8125l-10.171871 0l0 28.546875l-6.9375 0zm34.35156 0l0 -3.734375q-1.359375 2.0 -3.578125 3.15625q-2.203125 1.140625 -4.671875 1.140625q-2.5 0 -4.5 -1.09375q-1.984375 -1.109375 -2.875 -3.09375q-0.890625 -2.0 -0.890625 -5.515625l0 -15.75l6.578125 0l0 11.4375q0 5.25 0.359375 6.4375q0.375 1.171875 1.328125 1.875q0.96875 0.6875 2.4375 0.6875q1.6875 0 3.015625 -0.921875q1.34375 -0.9375 1.828125 -2.296875q0.5 -1.375 0.5 -6.71875l0 -10.5l6.59375 0l0 24.890625l-6.125 0zm27.351562 -7.921875l6.5625 1.09375q-1.265625 3.609375 -4.0 5.5q-2.71875 1.890625 -6.828125 1.890625q-6.484375 0 -9.609375 -4.25q-2.453125 -3.390625 -2.453125 -8.578125q0 -6.1875 3.234375 -9.6875q3.234375 -3.5 8.171875 -3.5q5.5625 0 8.765625 3.671875q3.21875 3.65625 3.078125 11.234375l-16.5 0q0.0625 2.921875 1.578125 4.5625q1.53125 1.625 3.8125 1.625q1.546875 0 2.59375 -0.84375q1.0625 -0.84375 1.59375 -2.71875zm0.375 -6.65625q-0.0625 -2.859375 -1.46875 -4.34375q-1.40625 -1.5 -3.421875 -1.5q-2.15625 0 -3.5625 1.578125q-1.40625 1.5625 -1.390625 4.265625l9.84375 0zm9.5859375 7.46875l6.6093826 -1.0q0.421875 1.921875 1.703125 2.921875q1.296875 0.984375 3.625 0.984375q2.546875 0 3.84375 -0.9375q0.859375 -0.65625 0.859375 -1.75q0 -0.75 -0.46875 -1.25q-0.484375 -0.46875 -2.203125 -0.859375q-7.9687576 -1.765625 -10.093758 -3.21875q-2.953125 -2.015625 -2.953125 -5.59375q0 -3.234375 2.546875 -5.4375q2.5625 -2.203125 7.9218826 -2.203125q5.109375 0 7.59375 1.671875q2.484375 1.65625 3.421875 4.90625l-6.203125 1.15625q-0.40625 -1.453125 -1.515625 -2.21875q-1.109375 -0.78125 -3.171875 -0.78125q-2.609375 0 -3.734375 0.71875q-0.75 0.515625 -0.75 1.34375q0 0.703125 0.65625 1.1875q0.890625 0.65625 6.15625 1.859375q5.265625 1.1875 7.34375 2.921875q2.0625 1.765625 2.0625 4.90625q0 3.421875 -2.859375 5.890625q-2.859375 2.453125 -8.453125 2.453125q-5.09375 0 -8.062508 -2.0625q-2.953125 -2.0625 -3.875 -5.609375zm72.79688 2.90625l-3.984375 5.09375q-2.921875 -1.4375 -5.625 -3.9375q-2.078125 1.875 -4.421875 2.765625q-2.34375 0.890625 -5.578125 0.890625q-6.421875 0 -9.65625 -3.609375q-2.515625 -2.796875 -2.515625 -6.421875q0 -3.3125 1.96875 -5.9375q1.96875 -2.640625 5.890625 -4.59375q-1.765625 -2.078125 -2.65625 -3.96875q-0.890625 -1.890625 -0.890625 -3.578125q0 -3.109375 2.5 -5.28125q2.5 -2.171875 7.109375 -2.171875q4.453125 0 6.953125 2.28125q2.515625 2.265625 2.515625 5.546875q0 2.09375 -1.25 3.96875q-1.234375 1.875 -5.0 4.234375l4.78125 6.3125q0.84375 -1.5 1.453125 -3.921875l5.953125 1.359375q-0.890625 3.171875 -1.546875 4.640625q-0.65625 1.453125 -1.40625 2.4375q1.09375 1.03125 2.84375 2.265625q1.75 1.234375 2.5625 1.625zm-17.921875 -18.671875l1.78125 -1.359375q1.96875 -1.53125 1.96875 -3.03125q0 -1.265625 -0.953125 -2.15625q-0.953125 -0.890625 -2.5625 -0.890625q-1.578125 0 -2.46875 0.796875q-0.890625 0.78125 -0.890625 1.8125q0 1.21875 1.5 2.953125l1.625 1.875zm-2.578125 7.140625q-2.28125 1.15625 -3.40625 2.78125q-1.125 1.609375 -1.125 3.296875q0 2.125 1.390625 3.484375q1.40625 1.34375 3.75 1.34375q1.546875 0 2.96875 -0.609375q1.4375 -0.609375 3.125 -2.015625l-6.703125 -8.28125zm45.84375 15.734375l0 -28.546875l-10.203125 0l0 -5.8125l27.3125 0l0 5.8125l-10.171875 0l0 28.546875l-6.9375 0zm28.101562 -34.359375l0 12.625q3.1875 -3.71875 7.609375 -3.71875q2.2812347 0 4.1093597 0.84375q1.828125 0.84375 2.75 2.15625q0.921875 1.3125 1.265625 2.90625q0.34375 1.59375 0.34375 4.9375l0 14.609375l-6.59375 0l0 -13.15625q0 -3.90625 -0.375 -4.953125q-0.375 -1.0625 -1.3281097 -1.6875q-0.9375 -0.625 -2.375 -0.625q-1.640625 0 -2.9375 0.796875q-1.28125 0.796875 -1.875 2.40625q-0.59375 1.609375 -0.59375 4.75l0 12.46875l-6.59375 0l0 -34.359375l6.59375 0zm39.132797 34.359375l0 -3.734375q-1.359375 2.0 -3.578125 3.15625q-2.203125 1.140625 -4.671875 1.140625q-2.5 0 -4.5 -1.09375q-1.984375 -1.109375 -2.875 -3.09375q-0.890625 -2.0 -0.890625 -5.515625l0 -15.75l6.578125 0l0 11.4375q0 5.25 0.359375 6.4375q0.375 1.171875 1.328125 1.875q0.96875 0.6875 2.4375 0.6875q1.6875 0 3.015625 -0.921875q1.34375 -0.9375 1.828125 -2.296875q0.5 -1.375 0.5 -6.71875l0 -10.5l6.59375 0l0 24.890625l-6.125 0zm19.242188 0l-6.578125 0l0 -24.890625l6.109375 0l0 3.53125q1.578125 -2.5 2.828125 -3.296875q1.25 -0.796875 2.84375 -0.796875q2.25 0 4.34375 1.234375l-2.046875 5.75q-1.65625 -1.078125 -3.09375 -1.078125q-1.375 0 -2.34375 0.765625q-0.953125 0.75 -1.515625 2.75q-0.546875 1.984375 -0.546875 8.34375l0 7.6875zm10.0546875 -7.109375l6.609375 -1.0q0.421875 1.921875 1.703125 2.921875q1.296875 0.984375 3.625 0.984375q2.546875 0 3.84375 -0.9375q0.859375 -0.65625 0.859375 -1.75q0 -0.75 -0.46875 -1.25q-0.484375 -0.46875 -2.203125 -0.859375q-7.96875 -1.765625 -10.09375 -3.21875q-2.953125 -2.015625 -2.953125 -5.59375q0 -3.234375 2.546875 -5.4375q2.5625 -2.203125 7.921875 -2.203125q5.109375 0 7.59375 1.671875q2.484375 1.65625 3.421875 4.90625l-6.203125 1.15625q-0.40625 -1.453125 -1.515625 -2.21875q-1.109375 -0.78125 -3.171875 -0.78125q-2.609375 0 -3.734375 0.71875q-0.75 0.515625 -0.75 1.34375q0 0.703125 0.65625 1.1875q0.890625 0.65625 6.15625 1.859375q5.265625 1.1875 7.34375 2.921875q2.0625 1.765625 2.0625 4.90625q0 3.421875 -2.859375 5.890625q-2.859375 2.453125 -8.453125 2.453125q-5.09375 0 -8.0625 -2.0625q-2.953125 -2.0625 -3.875 -5.609375z" fill-rule="nonzero"/></g></svg>